<?xml version="1.0" standalone="no"?>
<!DOCTYPE svg PUBLIC "-//W3C//DTD SVG 20010904//EN"
 "http://www.w3.org/TR/2001/REC-SVG-20010904/DTD/svg10.dtd">
<svg version="1.0" xmlns="http://www.w3.org/2000/svg"
 width="425.000000pt" height="381.000000pt" viewBox="0 0 425.000000 381.000000"
 preserveAspectRatio="xMidYMid meet">
<metadata>
Created by potrace 1.16, written by Peter Selinger 2001-2019
</metadata>
<g transform="translate(0.000000,381.000000) scale(0.100000,-0.100000)"
fill="#000000" stroke="none">
<path d="M1521 3341 c-17 -16 -31 -38 -31 -50 0 -11 23 -64 50 -116 58 -110
62 -148 30 -260 -23 -80 -25 -135 -8 -215 28 -136 -46 -167 -145 -61 -78 83
-91 122 -128 366 -22 145 -32 176 -71 211 -27 25 -78 40 -78 23 0 -6 -6 -9
-12 -6 -21 7 -76 -57 -83 -96 -4 -20 -5 -76 -3 -124 5 -145 69 -256 188 -328
99 -60 188 -175 206 -264 4 -20 -1 -35 -19 -57 -22 -25 -33 -29 -74 -29 -40 0
-71 11 -164 58 -107 54 -117 57 -147 46 -44 -15 -57 -48 -37 -94 18 -44 37
-52 165 -65 115 -11 153 -29 158 -72 4 -30 -19 -51 -84 -77 -113 -44 -240 -71
-408 -85 -186 -16 -250 -37 -300 -97 -72 -85 -46 -252 47 -310 39 -23 144 -26
185 -5 31 16 83 70 132 136 50 67 101 120 134 137 26 14 31 13 55 -5 42 -31
41 -94 -1 -158 -34 -50 -72 -74 -236 -147 -34 -16 -78 -42 -97 -59 -48 -42
-49 -93 -2 -143 52 -55 88 -51 161 16 61 55 68 69 34 63 -13 -2 -8 1 10 8 25
8 49 32 89 90 30 43 63 83 73 88 79 43 164 -49 141 -151 -19 -81 -15 -107 22
-129 39 -24 75 -25 105 -4 19 13 21 18 11 31 -11 13 -14 12 -21 -6 -9 -25 -31
-27 -53 -4 -22 21 -17 133 8 182 21 41 21 39 0 44 -16 4 -16 5 -1 6 9 0 30 25
47 55 17 30 44 70 61 89 40 47 143 112 209 133 49 16 56 16 80 2 35 -21 75
-92 67 -121 -3 -13 -23 -33 -45 -45 -38 -21 -91 -75 -91 -91 0 -13 122 8 225
40 140 43 215 81 263 133 37 41 62 90 50 101 -3 3 -65 23 -139 45 -306 92
-408 180 -397 342 6 85 29 131 108 208 129 128 401 236 668 265 57 6 63 9 67
33 3 15 21 74 41 132 64 186 69 212 56 258 -16 53 -57 82 -125 88 -95 9 -147
-36 -189 -168 l-22 -69 31 -92 c31 -90 31 -93 14 -122 -23 -40 -77 -75 -115
-75 -18 0 -50 13 -75 30 -79 53 -134 36 -206 -64 -52 -73 -81 -86 -138 -62
-29 12 -37 21 -41 48 -18 129 -30 171 -66 244 l-40 81 0 145 c0 81 -3 153 -6
162 -10 26 -58 19 -93 -13z m940 -111 c26 -14 24 -36 -11 -123 -16 -41 -35
-99 -41 -129 -25 -121 -23 -120 -42 -46 -47 184 4 345 94 298z m-1281 -55 c11
-13 10 -34 -4 -113 -9 -53 -18 -128 -19 -167 l-2 -70 -33 66 c-58 119 -65 235
-16 284 20 19 58 19 74 0z m-327 -1201 c3 -3 -20 -19 -51 -35 -32 -16 -93 -58
-136 -94 -43 -36 -86 -65 -95 -65 -26 0 -41 21 -41 56 0 62 99 120 228 133 42
5 80 9 83 10 3 0 8 -2 12 -5z"/>
<path d="M2845 2814 c-16 -8 -56 -42 -87 -74 l-57 -60 15 -35 c14 -34 15 -35
38 -20 13 9 46 40 74 70 49 54 77 66 100 43 42 -42 -30 -122 -132 -150 -40
-11 -51 -20 -77 -61 l-29 -48 27 14 c16 8 52 22 82 32 58 19 123 71 148 119
11 21 14 45 10 85 -9 81 -54 115 -112 85z"/>
<path d="M3429 2670 c-109 -28 -199 -80 -389 -230 -122 -95 -187 -130 -248
-130 -86 0 -149 49 -140 109 l4 28 -45 -28 c-62 -40 -142 -68 -210 -75 -56 -6
-58 -6 -88 29 -17 20 -35 43 -40 52 -8 14 -19 12 -101 -14 -93 -31 -172 -74
-172 -96 0 -7 55 -24 138 -42 172 -39 239 -64 301 -114 89 -69 126 -160 108
-264 -10 -59 -64 -170 -115 -238 -67 -88 -234 -198 -395 -263 -37 -14 -66 -29
-64 -33 25 -46 69 -151 88 -208 13 -40 26 -73 31 -73 4 0 5 -6 2 -14 -3 -7 2
-51 10 -97 8 -46 20 -140 26 -209 11 -142 22 -187 56 -247 32 -55 56 -69 96
-52 35 14 48 43 48 106 0 36 -16 81 -69 197 -37 83 -81 188 -96 233 -19 58
-33 83 -44 83 -12 0 -13 2 -3 9 10 6 11 18 3 52 -25 109 1 211 57 224 35 7 67
-6 82 -34 5 -11 23 -57 40 -104 51 -141 115 -195 178 -151 20 14 22 23 22 108
0 108 12 132 73 145 71 16 140 -13 184 -79 30 -43 40 -82 54 -204 6 -56 15
-113 21 -128 14 -38 73 -60 123 -47 119 33 113 143 -18 335 -40 58 -84 126
-99 152 -47 80 -33 154 37 208 30 23 41 25 79 20 24 -4 75 -22 113 -40 91 -44
137 -97 164 -191 43 -147 61 -194 92 -245 81 -134 185 -150 244 -36 20 38 28
196 14 269 -25 137 -96 233 -208 284 -51 23 -62 25 -127 17 -166 -20 -241 -3
-300 66 -47 56 -31 113 46 166 86 60 83 137 -6 204 -83 63 -96 118 -40 173 34
35 181 109 278 142 98 33 223 42 345 26 50 -7 99 -10 109 -7 26 9 57 82 56
133 -1 47 -22 84 -61 110 -30 20 -184 28 -244 13z m218 -76 c35 -26 41 -64 13
-89 -20 -18 -22 -18 -101 5 -44 13 -124 29 -177 35 -54 7 -95 13 -92 14 3 1
43 15 90 31 72 26 97 30 162 28 59 -2 83 -8 105 -24z m-178 -1173 c40 -50 70
-118 71 -155 0 -56 -59 -87 -92 -48 -8 9 -23 51 -32 92 -10 41 -34 109 -54
150 -21 41 -39 79 -41 84 -8 20 119 -86 148 -123z m-508 -318 c31 -63 36 -119
14 -143 -10 -11 -28 -20 -41 -20 -27 0 -40 34 -48 131 -3 36 -14 90 -25 120
-12 30 -21 56 -21 59 2 14 103 -110 121 -147z m-711 -383 c33 -53 54 -123 45
-157 -3 -13 -17 -29 -31 -35 -40 -18 -60 13 -67 104 -3 40 -15 100 -26 132
-12 33 -21 62 -21 65 0 12 74 -68 100 -109z"/>
<path d="M1456 1243 c-37 -131 -90 -270 -142 -375 -24 -48 -44 -90 -44 -93 0
-3 12 -3 28 0 26 5 26 5 4 -5 -13 -5 -27 -8 -31 -5 -10 6 -149 -232 -161 -276
-23 -81 -2 -171 45 -189 49 -18 130 16 175 73 31 39 48 100 70 257 11 74 23
147 26 162 5 24 3 27 -13 22 -17 -6 -17 -6 -1 7 11 9 27 59 43 134 15 66 42
165 61 220 50 144 50 141 22 147 -12 3 -30 8 -39 12 -12 5 -20 -12 -43 -91z
m-136 -759 c-7 -32 -23 -66 -44 -89 -27 -32 -36 -37 -58 -32 -47 12 -45 41 11
125 27 42 60 104 73 137 l23 60 3 -75 c2 -41 -2 -98 -8 -126z"/>
<path d="M1805 1325 c-5 -2 -27 -6 -47 -10 l-38 -6 0 -68 c0 -43 -9 -97 -24
-149 -14 -44 -28 -102 -32 -127 l-6 -46 28 6 c26 5 26 4 7 -4 -24 -11 -27 -19
-17 -46 16 -41 121 -59 188 -31 28 12 35 21 41 54 10 63 -4 130 -47 216 -35
70 -40 86 -35 130 2 28 8 59 12 69 7 16 -4 21 -30 12z"/>
</g>
</svg>
